<?xml version="1.0" encoding="UTF-8" standalone="no"?>
<svg
   xmlns:dc="http://purl.org/dc/elements/1.1/"
   xmlns:cc="http://creativecommons.org/ns#"
   xmlns:rdf="http://www.w3.org/1999/02/22-rdf-syntax-ns#"
   xmlns:svg="http://www.w3.org/2000/svg"
   xmlns="http://www.w3.org/2000/svg"
   viewBox="0 0 588.36798 598.52002"
   height="598.52002"
   width="588.36798"
   xml:space="preserve"
   id="svg2"
   version="1.1"><metadata
     id="metadata8"><rdf:RDF><cc:Work
         rdf:about=""><dc:format>image/svg+xml</dc:format><dc:type
           rdf:resource="http://purl.org/dc/dcmitype/StillImage" /></cc:Work></rdf:RDF></metadata><defs
     id="defs6"><clipPath
       id="clipPath18"
       clipPathUnits="userSpaceOnUse"><path
         id="path16"
         d="M 0,448.89 H 441.276 V 0 H 0 Z" /></clipPath></defs><g
     transform="matrix(1.3333333,0,0,-1.3333333,0,598.52)"
     id="g10"><g
       id="g12"><g
         clip-path="url(#clipPath18)"
         id="g14"><g
           transform="translate(246,319.39)"
           id="g20"><path
             id="path22"
             style="fill:#a0d3d2;fill-opacity:1;fill-rule:nonzero;stroke:none"
             d="m 0,0 c 0,-10.77 -8.73,-19.5 -19.5,-19.5 -10.77,0 -19.5,8.73 -19.5,19.5 0,10.77 8.73,19.5 19.5,19.5 C -8.73,19.5 0,10.77 0,0" /></g><g
           transform="translate(287,145.39)"
           id="g24"><path
             id="path26"
             style="fill:#a0d3d2;fill-opacity:1;fill-rule:nonzero;stroke:none"
             d="m 0,0 c 0,-6.351 -5.149,-11.5 -11.5,-11.5 -6.351,0 -11.5,5.149 -11.5,11.5 0,6.351 5.149,11.5 11.5,11.5 C -5.149,11.5 0,6.351 0,0" /></g><g
           transform="translate(286,237.39)"
           id="g28"><path
             id="path30"
             style="fill:#f9b01f;fill-opacity:1;fill-rule:nonzero;stroke:none"
             d="m 0,0 c 0,-3.59 -2.91,-6.5 -6.5,-6.5 -3.59,0 -6.5,2.91 -6.5,6.5 0,3.59 2.91,6.5 6.5,6.5 C -2.91,6.5 0,3.59 0,0" /></g><g
           transform="translate(177,237.39)"
           id="g32"><path
             id="path34"
             style="fill:#f9b01f;fill-opacity:1;fill-rule:nonzero;stroke:none"
             d="m 0,0 c 0,-3.59 -2.91,-6.5 -6.5,-6.5 -3.59,0 -6.5,2.91 -6.5,6.5 0,3.59 2.91,6.5 6.5,6.5 C -2.91,6.5 0,3.59 0,0" /></g><g
           transform="translate(138,71.39)"
           id="g36"><path
             id="path38"
             style="fill:#f9b01f;fill-opacity:1;fill-rule:nonzero;stroke:none"
             d="m 0,0 c 0,-3.59 -2.91,-6.5 -6.5,-6.5 -3.59,0 -6.5,2.91 -6.5,6.5 0,3.59 2.91,6.5 6.5,6.5 C -2.91,6.5 0,3.59 0,0" /></g><g
           transform="translate(328,71.39)"
           id="g40"><path
             id="path42"
             style="fill:#f9b01f;fill-opacity:1;fill-rule:nonzero;stroke:none"
             d="m 0,0 c 0,-3.59 -2.91,-6.5 -6.5,-6.5 -3.59,0 -6.5,2.91 -6.5,6.5 0,3.59 2.91,6.5 6.5,6.5 C -2.91,6.5 0,3.59 0,0" /></g><g
           transform="translate(186,145.39)"
           id="g44"><path
             id="path46"
             style="fill:#a0d3d2;fill-opacity:1;fill-rule:nonzero;stroke:none"
             d="m 0,0 c 0,-6.351 -5.149,-11.5 -11.5,-11.5 -6.351,0 -11.5,5.149 -11.5,11.5 0,6.351 5.149,11.5 11.5,11.5 C -5.149,11.5 0,6.351 0,0" /></g><g
           transform="translate(104,89.39)"
           id="g48"><path
             id="path50"
             style="fill:#a0d3d2;fill-opacity:1;fill-rule:nonzero;stroke:none"
             d="m 0,0 c 0,-6.351 -5.149,-11.5 -11.5,-11.5 -6.351,0 -11.5,5.149 -11.5,11.5 0,6.351 5.149,11.5 11.5,11.5 C -5.149,11.5 0,6.351 0,0" /></g><g
           transform="translate(369,95.89)"
           id="g52"><path
             id="path54"
             style="fill:#a0d3d2;fill-opacity:1;fill-rule:nonzero;stroke:none"
             d="M 0,0 -12,8 -23,1 v -14 l 12,-6 11,6 c 0,0 -0.181,13.181 0,13" /></g><g
           transform="translate(255.4776,102.0299)"
           id="g56"><path
             id="path58"
             style="fill:#fff;fill-opacity:1;fill-rule:nonzero;stroke:none"
             d="m 0,0 c 1.232,0.565 2.281,0.939 3.222,1.496 6.182,3.653 12.303,7.409 18.516,11.007 5.813,3.365 11.746,6.524 17.569,9.872 3.914,2.25 7.694,4.731 11.596,7.001 6.15,3.578 12.372,7.035 18.527,10.604 4.491,2.604 8.888,5.372 13.397,7.943 3.337,1.903 6.781,3.618 10.19,5.392 1.436,0.747 2.279,1.601 2.272,3.506 -0.067,17.131 0.033,34.263 -0.013,51.395 -0.005,1.984 0.523,2.675 2.551,2.64 5.863,-0.099 11.73,-0.077 17.594,0.024 2,0.034 2.718,-0.521 2.71,-2.674 -0.06,-16.132 0.01,-32.265 0.054,-48.397 0.006,-2.466 -0.076,-4.949 0.187,-7.392 0.209,-1.941 0.837,-3.845 1.36,-5.744 1.487,-5.394 1.347,-10.578 -2.272,-15.145 -3.293,-4.156 -7.692,-6.452 -13.023,-6.179 -2.096,0.107 -4.207,1.112 -6.184,1.994 -1.481,0.66 -2.579,0.716 -4.045,-0.156 C 87.93,23.45 81.557,19.875 75.219,16.239 63.174,9.33 51.122,2.433 39.088,-4.495 26.41,-11.794 13.748,-19.122 1.082,-26.441 c -5.174,-2.989 -10.367,-5.947 -15.491,-9.019 -1.032,-0.618 -2.05,-1.543 -2.636,-2.575 -2.842,-5.007 -6.767,-8.302 -12.712,-8.815 -1.123,-0.097 -2.217,-0.545 -3.69,-0.926 -0.981,0.411 -2.562,0.992 -4.071,1.721 -2.93,1.413 -5.628,3.273 -7.042,6.245 -1.169,2.457 -2.965,4.004 -5.197,5.281 -7.909,4.523 -15.812,9.055 -23.71,13.597 -14.396,8.28 -28.792,16.559 -43.178,24.856 -13.374,7.714 -26.718,15.48 -40.136,23.116 -0.919,0.522 -2.513,0.543 -3.513,0.126 -6.85,-2.853 -12.673,-1.589 -17.435,3.155 -4.709,4.692 -6.09,11.231 -3.746,17.696 0.686,1.891 1.124,3.984 1.141,5.989 0.134,16.398 0.134,32.797 0.195,49.195 0.007,1.865 0.205,3.73 0.179,5.594 -0.02,1.437 0.521,2.044 1.975,2.047 6.465,0.014 12.931,0.059 19.396,0.144 1.305,0.017 1.566,-0.662 1.569,-1.739 0.008,-3.533 0.083,-7.067 0.057,-10.599 -0.103,-13.798 -0.194,-27.597 -0.401,-41.394 -0.03,-1.965 0.771,-3.178 2.273,-4.075 7.704,-4.6 15.403,-9.209 23.153,-13.729 9.654,-5.63 19.328,-11.227 29.047,-16.744 7.405,-4.203 14.929,-8.197 22.334,-12.402 4.685,-2.661 9.235,-5.561 13.875,-8.304 1.182,-0.699 2.474,-1.212 4.097,-1.994 0.117,2.088 0.291,3.789 0.296,5.489 0.05,17.999 0.076,35.998 0.102,53.997 0.009,6.599 -0.034,13.199 0.029,19.798 0.012,1.248 -0.324,2.024 -1.519,2.412 -0.375,0.122 -0.778,0.287 -1.058,0.55 -2.885,2.706 -5.445,1.983 -8.59,-0.008 -9.448,-5.982 -19.169,-11.533 -28.68,-17.418 -1.426,-0.883 -2.53,-2.523 -3.393,-4.035 -3.587,-6.281 -8.972,-10.029 -16.013,-11.06 -6.85,-1.003 -12.436,2.008 -16.802,6.995 -8.54,9.755 -6.59,23.605 4.131,30.97 6.008,4.127 14.988,4.242 20.926,0.159 1.201,-0.825 2.134,-0.719 3.284,-0.05 9.953,5.796 19.919,11.569 29.888,17.338 3.165,1.832 6.298,3.732 9.556,5.383 0.975,0.493 2.585,0.729 3.461,0.259 5.504,-2.959 10.891,-6.139 16.302,-9.271 2.765,-1.601 5.497,-3.258 8.246,-4.886 1.679,-0.994 2.588,-2.159 2.583,-4.412 -0.074,-34.13 0.004,-68.26 -0.046,-102.39 -0.003,-1.976 0.698,-3.119 2.276,-3.977 0.351,-0.191 0.693,-0.401 1.054,-0.568 1.847,-0.857 3.905,-2.675 5.501,-2.335 2.67,0.569 5.091,2.444 7.505,3.95 0.457,0.286 0.541,1.412 0.543,2.15 0.057,19.599 0.058,39.198 0.119,58.797 0.047,15.065 0.172,30.13 0.23,45.195 0.005,1.416 0.267,2.374 1.69,3.18 7.862,4.454 15.66,9.023 23.44,13.622 2.663,1.574 5.031,1.02 7.494,-0.441 4.794,-2.846 9.643,-5.6 14.472,-8.386 4.486,-2.588 8.971,-5.177 13.465,-7.75 3.339,-1.911 6.661,-3.857 10.069,-5.636 0.565,-0.295 1.672,-0.041 2.297,0.339 11.923,7.268 26.144,0.444 29.849,-11.501 1.905,-6.142 1.2,-11.93 -2.254,-17.386 -4.175,-6.592 -10.747,-8.95 -17.948,-10.051 -1.195,-0.182 -2.55,0.57 -3.813,0.952 -6.578,1.991 -11.334,6.111 -14.458,12.228 -0.547,1.07 -1.444,2.143 -2.457,2.763 -4.593,2.812 -9.296,5.446 -13.941,8.176 -4.468,2.626 -8.914,5.291 -13.368,7.942 -0.63,0.375 -1.244,0.776 -1.876,1.147 C 5.643,84.799 4.448,84.725 0.638,81.322 0.111,80.851 -0.134,79.816 -0.135,79.042 -0.175,53.31 -0.169,27.579 -0.163,1.847 -0.163,1.343 -0.077,0.839 0,0" /></g><g
           transform="translate(75.2826,272.8903)"
           id="g60"><path
             id="path62"
             style="fill:#fff;fill-opacity:1;fill-rule:nonzero;stroke:none"
             d="m 0,0 c 0,6.599 0.032,13.198 -0.032,19.797 -0.01,1.084 -0.259,2.248 -0.709,3.233 -2.528,5.523 -2.112,10.765 1.463,15.654 3.864,5.285 9.375,6.417 15.473,5.706 1.015,-0.118 2.038,-0.626 2.943,-1.151 2.053,-1.189 3.919,-1.067 5.952,0.159 4.762,2.875 9.585,5.653 14.427,8.395 4.623,2.618 9.334,5.081 13.945,7.72 5.653,3.237 11.225,6.614 16.861,9.88 6.328,3.669 12.709,7.247 19.028,10.931 4.193,2.443 8.278,5.07 12.484,7.489 3.048,1.753 6.26,3.218 9.318,4.953 7.173,4.07 14.32,8.19 21.418,12.391 0.959,0.567 1.772,1.611 2.313,2.617 2.29,4.257 5.541,6.931 10.321,8.404 3.611,1.112 6.667,0.727 9.761,-0.778 3.67,-1.785 6.607,-4.399 8.39,-8.221 0.498,-1.068 1.395,-2.154 2.395,-2.751 6.502,-3.873 13.055,-7.665 19.647,-11.384 6.01,-3.39 12.137,-6.573 18.127,-9.996 5.075,-2.9 9.994,-6.07 15.046,-9.012 3.784,-2.203 7.689,-4.198 11.504,-6.35 3.648,-2.059 7.226,-4.244 10.879,-6.294 3.356,-1.883 6.784,-3.636 10.156,-5.491 2.773,-1.524 5.511,-3.113 8.263,-4.675 5.323,-3.021 10.628,-6.077 15.998,-9.011 0.483,-0.264 1.479,0.087 2.086,0.424 7.951,4.43 17.193,1.51 21.552,-6.444 2.421,-4.415 2.126,-8.674 0.554,-13.03 -0.879,-2.434 -1.252,-4.828 -1.242,-7.394 0.045,-11.064 -0.013,-22.129 -0.041,-33.194 -0.003,-1.066 -0.115,-2.134 -0.082,-3.197 0.052,-1.676 -0.644,-2.334 -2.371,-2.311 -6.126,0.08 -12.255,0.09 -18.381,0.017 -1.632,-0.02 -1.989,0.627 -2.01,2.109 -0.157,11.262 -0.424,22.523 -0.544,33.785 -0.018,1.68 -0.526,2.561 -2.003,3.388 -10.907,6.113 -21.744,12.349 -32.623,18.514 -6.475,3.669 -12.985,7.278 -19.48,10.912 -5.911,3.307 -11.856,6.554 -17.725,9.933 -5.924,3.41 -11.756,6.977 -17.66,10.422 -3.378,1.97 -6.822,3.826 -10.229,5.747 -8.503,4.792 -17.015,9.57 -25.489,14.415 -1.266,0.724 -2.103,0.586 -3.352,-0.185 -6.224,-3.842 -12.55,-7.518 -18.844,-11.247 C 121.591,71.385 115.715,67.855 109.784,64.421 105.765,62.095 101.64,59.953 97.609,57.647 92.882,54.944 88.231,52.107 83.497,49.415 79.512,47.148 75.422,45.065 71.439,42.794 67.114,40.328 62.884,37.696 58.567,35.216 51.247,31.009 43.893,26.86 36.549,22.696 32.386,20.335 28.189,18.033 24.078,15.585 23.6,15.3 23.379,14.253 23.375,13.557 23.334,7.158 23.392,0.759 23.371,-5.64 c -0.017,-5.064 -0.147,-10.129 -0.137,-15.194 0.004,-1.594 -0.551,-2.283 -2.182,-2.277 -6.332,0.022 -12.664,0.003 -18.996,-0.059 -1.46,-0.014 -1.83,0.73 -1.828,1.979 C 0.237,-14.127 0.232,-7.064 0.232,0 0.155,0 0.077,0 0,0" /></g><g
           transform="translate(161.6091,265.6406)"
           id="g64"><path
             id="path66"
             style="fill:#fff;fill-opacity:1;fill-rule:nonzero;stroke:none"
             d="m 0,0 c -9.169,-0.918 -15.696,1.893 -20.21,8.43 -3.353,4.855 -4.262,10.344 -2.913,16.329 1.015,4.5 3.306,8.014 6.628,10.84 4.485,3.815 9.709,6.353 15.757,5.136 8.295,-1.67 14.744,-5.942 17.534,-14.44 0.632,-1.926 0.992,-3.944 1.655,-5.857 0.283,-0.816 0.874,-1.709 1.584,-2.16 3.354,-2.134 6.777,-4.16 10.214,-6.16 3.91,-2.274 7.828,-4.538 11.803,-6.695 2.67,-1.448 2.747,-1.383 4.469,1.013 3.755,5.227 8.873,8.304 15.204,8.906 4.139,0.394 7.889,-1.477 11.539,-3.337 2.857,-1.457 4.664,-3.867 6.164,-6.522 0.857,-1.516 1.818,-1.545 3.104,-0.822 2.378,1.337 4.765,2.659 7.113,4.046 5.368,3.173 10.753,6.32 16.033,9.634 0.899,0.564 1.715,1.843 1.88,2.9 1.066,6.819 3.84,12.391 9.894,16.281 4.036,2.593 8.27,3.525 12.88,3.23 8.041,-0.516 15.894,-7.468 18.151,-15.243 1.215,-4.182 1.06,-8.083 -0.05,-12.141 -1.934,-7.077 -10.144,-14.062 -19.119,-13.592 -0.066,0.004 -0.137,-0.014 -0.199,0.003 -6.458,1.721 -11.56,-1.34 -16.718,-4.547 -4.903,-3.049 -10.192,-5.51 -14.934,-8.777 -5.425,-3.739 -11.455,-6.328 -17.013,-9.795 -5.398,-3.367 -11.021,-6.379 -16.607,-9.434 -0.666,-0.365 -1.891,-0.332 -2.565,0.043 -5.229,2.906 -10.367,5.973 -15.569,8.929 -6.817,3.874 -13.682,7.666 -20.495,11.549 -2.31,1.317 -4.5,2.845 -6.79,4.201 C 14.992,-6.021 11.4,-4.233 8.099,-2.011 5.17,-0.038 2.152,0.472 0,0" /></g><g
           transform="translate(174.4772,220.5754)"
           id="g68"><path
             id="path70"
             style="fill:#fff;fill-opacity:1;fill-rule:nonzero;stroke:none"
             d="m 0,0 c -4.403,-2.739 -8.44,-5.428 -12.679,-7.75 -0.939,-0.515 -2.802,-0.104 -3.872,0.516 -4.425,2.56 -8.737,5.321 -13.026,8.109 -1.146,0.745 -1.953,0.586 -3.076,-0.024 -6.363,-3.459 -12.879,-4.807 -19.802,-1.445 -6.87,3.336 -11.769,11.27 -11.091,18.741 0.427,4.704 1.444,9.147 4.136,12.921 2.293,3.216 5.582,5.632 9.437,6.749 5.131,1.487 10.344,1.945 15.341,-0.714 6.296,-3.351 10.836,-8.083 11.959,-15.425 0.231,-1.507 0.45,-3.087 0.245,-4.574 -0.358,-2.609 0.867,-4.071 2.929,-5.285 C -14.062,8.621 -8.666,5.354 -3.261,2.101 -2.195,1.459 -1.167,0.754 0,0" /></g><g
           transform="translate(273.5168,220.4325)"
           id="g72"><path
             id="path74"
             style="fill:#fff;fill-opacity:1;fill-rule:nonzero;stroke:none"
             d="m 0,0 c 0.988,0.683 1.503,1.095 2.067,1.42 6.573,3.784 13.181,7.507 19.693,11.393 0.787,0.469 1.386,1.755 1.51,2.733 0.294,2.303 0.126,4.661 0.363,6.975 0.654,6.388 6.506,13.366 12.629,15.141 1.973,0.572 3.959,1.232 5.984,1.466 7.749,0.896 16.258,-4.413 19.813,-11.823 3.277,-6.83 3.108,-13.293 -0.67,-19.893 -2.846,-4.97 -7.345,-7.638 -12.415,-9.215 -5.783,-1.8 -11.396,-0.233 -16.6,2.6 -1.173,0.639 -2.086,0.668 -3.137,0.023 -2.868,-1.763 -5.706,-3.576 -8.612,-5.274 -2.11,-1.235 -4.298,-2.34 -6.481,-3.446 -0.296,-0.15 -0.84,-0.092 -1.141,0.087 C 8.791,-5.313 4.602,-2.774 0,0" /></g><g
           transform="translate(179,286.39)"
           id="g76"><path
             id="path78"
             style="fill:#fff;fill-opacity:1;fill-rule:nonzero;stroke:none"
             d="m 0,0 c 0,-11.874 -9.626,-21.5 -21.5,-21.5 -11.874,0 -21.5,9.626 -21.5,21.5 0,11.874 9.626,21.5 21.5,21.5 C -9.626,21.5 0,11.874 0,0" /></g><g
           transform="translate(246,264.39)"
           id="g80"><path
             id="path82"
             style="fill:#fff;fill-opacity:1;fill-rule:nonzero;stroke:none"
             d="m 0,0 c 0,-11.874 -9.626,-21.5 -21.5,-21.5 -11.874,0 -21.5,9.626 -21.5,21.5 0,11.874 9.626,21.5 21.5,21.5 C -9.626,21.5 0,11.874 0,0" /></g><g
           transform="translate(376,304.39)"
           id="g84"><path
             id="path86"
             style="fill:#fff;fill-opacity:1;fill-rule:nonzero;stroke:none"
             d="m 0,0 c 0,-8.008 -6.492,-14.5 -14.5,-14.5 -8.008,0 -14.5,6.492 -14.5,14.5 0,8.008 6.492,14.5 14.5,14.5 C -6.492,14.5 0,8.008 0,0" /></g><g
           transform="translate(101,304.39)"
           id="g88"><path
             id="path90"
             style="fill:#fff;fill-opacity:1;fill-rule:nonzero;stroke:none"
             d="m 0,0 c 0,-8.008 -6.492,-14.5 -14.5,-14.5 -8.008,0 -14.5,6.492 -14.5,14.5 0,8.008 6.492,14.5 14.5,14.5 C -6.492,14.5 0,8.008 0,0" /></g><g
           transform="translate(239,376.39)"
           id="g92"><path
             id="path94"
             style="fill:#fff;fill-opacity:1;fill-rule:nonzero;stroke:none"
             d="m 0,0 c 0,-8.008 -6.492,-14.5 -14.5,-14.5 -8.008,0 -14.5,6.492 -14.5,14.5 0,8.008 6.492,14.5 14.5,14.5 C -6.492,14.5 0,8.008 0,0" /></g><g
           transform="translate(239,66.39)"
           id="g96"><path
             id="path98"
             style="fill:#fff;fill-opacity:1;fill-rule:nonzero;stroke:none"
             d="m 0,0 c 0,-8.008 -6.492,-14.5 -14.5,-14.5 -8.008,0 -14.5,6.492 -14.5,14.5 0,8.008 6.492,14.5 14.5,14.5 C -6.492,14.5 0,8.008 0,0" /></g><g
           transform="translate(101,141.39)"
           id="g100"><path
             id="path102"
             style="fill:#fff;fill-opacity:1;fill-rule:nonzero;stroke:none"
             d="m 0,0 c 0,-8.008 -6.492,-14.5 -14.5,-14.5 -8.008,0 -14.5,6.492 -14.5,14.5 0,8.008 6.492,14.5 14.5,14.5 C -6.492,14.5 0,8.008 0,0" /></g><g
           transform="translate(377,141.39)"
           id="g104"><path
             id="path106"
             style="fill:#fff;fill-opacity:1;fill-rule:nonzero;stroke:none"
             d="m 0,0 c 0,-8.008 -6.492,-14.5 -14.5,-14.5 -8.008,0 -14.5,6.492 -14.5,14.5 0,8.008 6.492,14.5 14.5,14.5 C -6.492,14.5 0,8.008 0,0" /></g><g
           transform="translate(312,286.39)"
           id="g108"><path
             id="path110"
             style="fill:#fff;fill-opacity:1;fill-rule:nonzero;stroke:none"
             d="m 0,0 c 0,-11.874 -9.626,-21.5 -21.5,-21.5 -11.874,0 -21.5,9.626 -21.5,21.5 0,11.874 9.626,21.5 21.5,21.5 C -9.626,21.5 0,11.874 0,0" /></g><g
           transform="translate(337,171.39)"
           id="g112"><path
             id="path114"
             style="fill:#fff;fill-opacity:1;fill-rule:nonzero;stroke:none"
             d="m 0,0 c 0,-11.874 -9.626,-21.5 -21.5,-21.5 -11.874,0 -21.5,9.626 -21.5,21.5 0,11.874 9.626,21.5 21.5,21.5 C -9.626,21.5 0,11.874 0,0" /></g><g
           transform="translate(154,171.39)"
           id="g116"><path
             id="path118"
             style="fill:#fff;fill-opacity:1;fill-rule:nonzero;stroke:none"
             d="m 0,0 c 0,-11.874 -9.626,-21.5 -21.5,-21.5 -11.874,0 -21.5,9.626 -21.5,21.5 0,11.874 9.626,21.5 21.5,21.5 C -9.626,21.5 0,11.874 0,0" /></g><g
           transform="translate(337,239.39)"
           id="g120"><path
             id="path122"
             style="fill:#fff;fill-opacity:1;fill-rule:nonzero;stroke:none"
             d="m 0,0 c 0,-11.874 -9.626,-21.5 -21.5,-21.5 -11.874,0 -21.5,9.626 -21.5,21.5 0,11.874 9.626,21.5 21.5,21.5 C -9.626,21.5 0,11.874 0,0" /></g><g
           transform="translate(150,239.39)"
           id="g124"><path
             id="path126"
             style="fill:#fff;fill-opacity:1;fill-rule:nonzero;stroke:none"
             d="m 0,0 c 0,-11.874 -9.626,-21.5 -21.5,-21.5 -11.874,0 -21.5,9.626 -21.5,21.5 0,11.874 9.626,21.5 21.5,21.5 C -9.626,21.5 0,11.874 0,0" /></g></g></g></g></svg>